<svg width="220" height="111" viewBox="0 0 220 111" fill="none" xmlns="http://www.w3.org/2000/svg">
<g clip-path="url(#clip0)">
<path d="M65.1543 47.35L61.4204 50.8984C58.8834 48.2209 56.0212 46.8821 52.8467 46.8821C50.1667 46.8821 47.9159 47.792 46.0815 49.6246C44.2471 51.4573 43.3234 53.7059 43.3234 56.3834C43.3234 58.2421 43.7267 59.9058 44.5463 61.3485C45.3529 62.7913 46.5108 63.935 47.994 64.7539C49.4771 65.5728 51.1294 65.9887 52.9508 65.9887C54.499 65.9887 55.9171 65.7027 57.1921 65.1178C58.4801 64.5459 59.8852 63.4931 61.4204 61.9724L65.0372 65.7417C62.9686 67.7564 61.004 69.1601 59.1696 69.94C57.3222 70.7198 55.2276 71.1097 52.8597 71.1097C48.5014 71.1097 44.9366 69.732 42.1525 66.9765C39.3813 64.221 37.9893 60.6856 37.9893 56.3834C37.9893 53.6019 38.6268 51.1194 39.8887 48.9487C41.1507 46.7781 42.9591 45.0365 45.3269 43.7237C47.6817 42.4109 50.2187 41.748 52.9378 41.748C55.2536 41.748 57.4783 42.229 59.612 43.2038C61.7586 44.1656 63.593 45.5564 65.1543 47.35Z" fill="white"/>
<path d="M68.2898 41.7354H73.4938V70.3952H68.2898V41.7354Z" fill="white"/>
<path d="M80.7924 41.2021C81.7031 41.2021 82.4837 41.5271 83.1342 42.19C83.7847 42.8529 84.11 43.6457 84.11 44.5815C84.11 45.5044 83.7847 46.2972 83.1342 46.9471C82.4837 47.597 81.7161 47.9219 80.8184 47.9219C79.8947 47.9219 79.1011 47.584 78.4506 46.9211C77.8001 46.2582 77.4749 45.4524 77.4749 44.5036C77.4749 43.5937 77.8001 42.8139 78.4376 42.164C79.1011 41.5271 79.8687 41.2021 80.7924 41.2021ZM78.1904 49.7156H83.3944V70.3949H78.1904V49.7156Z" fill="white"/>
<path d="M108.426 53.9008L104.093 56.2793C103.274 55.4345 102.48 54.8366 101.674 54.5117C100.88 54.1867 99.9433 54.0177 98.8765 54.0177C96.925 54.0177 95.3507 54.6026 94.1538 55.7594C92.9569 56.9162 92.3454 58.3979 92.3454 60.2046C92.3454 61.9593 92.9179 63.402 94.0757 64.5068C95.2336 65.6246 96.7558 66.1705 98.6423 66.1705C100.971 66.1705 102.779 65.3777 104.08 63.792L108.179 66.5995C105.954 69.4849 102.819 70.9277 98.7594 70.9277C95.1166 70.9277 92.2543 69.8489 90.1857 67.6913C88.1171 65.5337 87.0894 63.0121 87.0894 60.1266C87.0894 58.125 87.5967 56.2793 88.5985 54.6026C89.6003 52.9129 91.0054 51.5872 92.8008 50.6254C94.5962 49.6635 96.6127 49.1826 98.8374 49.1826C100.893 49.1826 102.74 49.5855 104.38 50.4044C106.019 51.2232 107.385 52.393 108.426 53.9008Z" fill="white"/>
<path d="M111.652 41.7354H116.453V44.3479C116.453 46.0116 116.245 47.4543 115.828 48.6501C115.412 49.8459 114.722 51.0937 113.747 52.3674L111.873 50.9117C112.342 50.2358 112.693 49.6379 112.914 49.144C113.135 48.6501 113.356 47.9872 113.578 47.1684H111.652V41.7354V41.7354Z" fill="white"/>
<path d="M122.542 42.4365H127.876V65.3124H135.656V70.3815H122.542V42.4365Z" fill="white"/>
<path d="M148.562 49.1826C150.513 49.1826 152.361 49.6765 154.078 50.6514C155.796 51.6262 157.149 52.9519 158.111 54.6286C159.074 56.3053 159.555 58.112 159.555 60.0486C159.555 61.9983 159.074 63.818 158.098 65.5207C157.123 67.2233 155.795 68.5491 154.13 69.4979C152.452 70.4598 150.604 70.9277 148.588 70.9277C145.609 70.9277 143.072 69.8749 140.977 67.7693C138.869 65.6636 137.829 63.1031 137.829 60.0876C137.829 56.8512 139.013 54.1607 141.393 52.0161C143.462 50.1184 145.856 49.1826 148.562 49.1826ZM148.653 54.0697C147.04 54.0697 145.687 54.6286 144.62 55.7464C143.54 56.8642 143.007 58.307 143.007 60.0486C143.007 61.8423 143.54 63.3111 144.607 64.4159C145.674 65.5337 147.014 66.0926 148.64 66.0926C150.266 66.0926 151.619 65.5337 152.712 64.4029C153.792 63.2721 154.338 61.8293 154.338 60.0486C154.338 58.281 153.805 56.8382 152.738 55.7204C151.671 54.6286 150.305 54.0697 148.653 54.0697Z" fill="white"/>
<path d="M183.78 53.9008L179.448 56.2793C178.628 55.4345 177.834 54.8366 177.028 54.5117C176.234 54.1867 175.297 54.0177 174.23 54.0177C172.279 54.0177 170.705 54.6026 169.508 55.7594C168.311 56.9162 167.699 58.3979 167.699 60.2046C167.699 61.9593 168.272 63.402 169.43 64.5068C170.588 65.6246 172.11 66.1705 173.996 66.1705C176.325 66.1705 178.133 65.3777 179.434 63.792L183.533 66.5995C181.308 69.4849 178.173 70.9277 174.113 70.9277C170.471 70.9277 167.608 69.8489 165.54 67.6913C163.471 65.5337 162.443 63.0121 162.443 60.1266C162.443 58.125 162.951 56.2793 163.953 54.6026C164.954 52.9129 166.359 51.5872 168.155 50.6254C169.95 49.6635 171.967 49.1826 174.191 49.1826C176.247 49.1826 178.094 49.5855 179.734 50.4044C181.399 51.2232 182.739 52.393 183.78 53.9008Z" fill="white"/>
<path d="M202.488 49.7152H207.692V70.3945H202.488V68.2109C201.474 69.1727 200.459 69.8616 199.431 70.2905C198.403 70.7194 197.297 70.9274 196.113 70.9274C193.433 70.9274 191.118 69.8876 189.166 67.821C187.215 65.7543 186.239 63.1678 186.239 60.1003C186.239 56.9029 187.189 54.2904 189.075 52.2498C190.961 50.2091 193.264 49.1953 195.97 49.1953C197.219 49.1953 198.377 49.4293 199.47 49.8972C200.563 50.3651 201.565 51.067 202.501 52.0028V49.7152H202.488ZM197.011 53.9784C195.398 53.9784 194.071 54.5503 193.004 55.6811C191.937 56.8119 191.404 58.2677 191.404 60.0484C191.404 61.829 191.95 63.3108 193.03 64.4546C194.11 65.6114 195.45 66.1833 197.024 66.1833C198.663 66.1833 200.016 65.6114 201.083 64.4806C202.163 63.3498 202.696 61.855 202.696 60.0224C202.696 58.2287 202.163 56.76 201.083 55.6552C200.029 54.5244 198.663 53.9784 197.011 53.9784Z" fill="white"/>
<path d="M212.584 41.7354H217.788V70.3952H212.584V41.7354Z" fill="white"/>
<path d="M41.6841 30.5321C45.8372 30.5321 49.2039 27.1686 49.2039 23.0195C49.2039 18.8704 45.8372 15.5068 41.6841 15.5068C37.531 15.5068 34.1643 18.8704 34.1643 23.0195C34.1643 27.1686 37.531 30.5321 41.6841 30.5321Z" fill="#009CB9"/>
<path d="M34.6066 12.4522C37.9262 12.4522 40.6173 9.76373 40.6173 6.4473C40.6173 3.13088 37.9262 0.442383 34.6066 0.442383C31.287 0.442383 28.5959 3.13088 28.5959 6.4473C28.5959 9.76373 31.287 12.4522 34.6066 12.4522Z" fill="white"/>
<path d="M69.4217 95.4941C73.5747 95.4941 76.9415 92.1305 76.9415 87.9814C76.9415 83.8323 73.5747 80.4688 69.4217 80.4688C65.2686 80.4688 61.9019 83.8323 61.9019 87.9814C61.9019 92.1305 65.2686 95.4941 69.4217 95.4941Z" fill="#009CB9"/>
<path d="M76.4992 110.558C79.8188 110.558 82.5098 107.869 82.5098 104.553C82.5098 101.236 79.8188 98.5479 76.4992 98.5479C73.1796 98.5479 70.4885 101.236 70.4885 104.553C70.4885 107.869 73.1796 110.558 76.4992 110.558Z" fill="white"/>
<path d="M23.0408 76.8681C27.1939 76.8681 30.5606 73.5045 30.5606 69.3554C30.5606 65.2063 27.1939 61.8428 23.0408 61.8428C18.8877 61.8428 15.521 65.2063 15.521 69.3554C15.521 73.5045 18.8877 76.8681 23.0408 76.8681Z" fill="#009CB9"/>
<path d="M6.45303 82.4317C9.77261 82.4317 12.4637 79.7432 12.4637 76.4268C12.4637 73.1104 9.77261 70.4219 6.45303 70.4219C3.13344 70.4219 0.442383 73.1104 0.442383 76.4268C0.442383 79.7432 3.13344 82.4317 6.45303 82.4317Z" fill="white"/>
<path d="M68.7322 30.2587C72.8853 30.2587 76.252 26.8952 76.252 22.7461C76.252 18.5969 72.8853 15.2334 68.7322 15.2334C64.5791 15.2334 61.2124 18.5969 61.2124 22.7461C61.2124 26.8952 64.5791 30.2587 68.7322 30.2587Z" fill="#009CB9"/>
<path d="M75.4583 12.0098C78.7635 12.0098 81.4429 9.32134 81.4429 6.00492C81.4429 2.68849 78.7635 0 75.4583 0C72.153 0 69.4736 2.68849 69.4736 6.00492C69.4736 9.32134 72.153 12.0098 75.4583 12.0098Z" fill="white"/>
<path d="M42.3738 95.7665C46.5269 95.7665 49.8936 92.403 49.8936 88.2539C49.8936 84.1047 46.5269 80.7412 42.3738 80.7412C38.2207 80.7412 34.854 84.1047 34.854 88.2539C34.854 92.403 38.2207 95.7665 42.3738 95.7665Z" fill="#009CB9"/>
<path d="M35.6476 111C38.9672 111 41.6583 108.312 41.6583 104.995C41.6583 101.679 38.9672 98.9902 35.6476 98.9902C32.328 98.9902 29.637 101.679 29.637 104.995C29.637 108.312 32.328 111 35.6476 111Z" fill="white"/>
<path d="M22.7676 49.8456C26.9207 49.8456 30.2874 46.4821 30.2874 42.333C30.2874 38.1838 26.9207 34.8203 22.7676 34.8203C18.6145 34.8203 15.2478 38.1838 15.2478 42.333C15.2478 46.4821 18.6145 49.8456 22.7676 49.8456Z" fill="#009CB9"/>
<path d="M6.01064 41.6183C9.33023 41.6183 12.0213 38.9298 12.0213 35.6133C12.0213 32.2969 9.33023 29.6084 6.01064 29.6084C2.69106 29.6084 0 32.2969 0 35.6133C0 38.9298 2.69106 41.6183 6.01064 41.6183Z" fill="white"/>
</g>
<defs>
<clipPath id="clip0">
<rect width="217.788" height="111" fill="white"/>
</clipPath>
</defs>
</svg>
